<svg class="svg-icon" viewBox="0 0 1024 1024" version="1.1" xmlns="http://www.w3.org/2000/svg"><path d="M893.653333 554.666667c-19.669333 177.984-161.002667 319.317333-338.986666 338.986666V938.666667a42.666667 42.666667 0 1 1-85.333334 0v-45.013334C291.349333 873.984 150.016 732.650667 130.346667 554.666667H85.333333a42.666667 42.666667 0 1 1 0-85.333334h45.013334C150.016 291.349333 291.349333 150.016 469.333333 130.346667V85.333333a42.666667 42.666667 0 1 1 85.333334 0v45.013334c177.984 19.669333 319.317333 161.002667 338.986666 338.986666H938.666667a42.666667 42.666667 0 1 1 0 85.333334h-45.013334zM512 810.666667c164.949333 0 298.666667-133.717333 298.666667-298.666667s-133.717333-298.666667-298.666667-298.666667-298.666667 133.717333-298.666667 298.666667 133.717333 298.666667 298.666667 298.666667z m0-128a170.666667 170.666667 0 1 1 0-341.333334 170.666667 170.666667 0 0 1 0 341.333334z m0-85.333334a85.333333 85.333333 0 1 0 0-170.666666 85.333333 85.333333 0 0 0 0 170.666666z" fill="white" /></svg>